{
	"asset":{
		"copyright":"darkdan",
		"generator":"Khronos glTF Blender I/O v3.6.27",
		"version":"2.0"
	},
	"extensionsUsed":[
		"KHR_materials_clearcoat"
	],
	"scene":0,
	"scenes":[
		{
			"name":"Scene",
			"nodes":[
				0,
				1,
				2,
				3,
				4,
				5,
				6,
				7,
				8,
				9,
				10,
				11,
				12
			]
		}
	],
	"nodes":[
		{
			"mesh":0,
			"name":"tapitas caset",
			"translation":[
				0,
				0.30285772681236267,
				0
			]
		},
		{
			"mesh":1,
			"name":"nintendobase",
			"translation":[
				0,
				0.36020639538764954,
				0
			]
		},
		{
			"mesh":2,
			"name":"NIN",
			"translation":[
				0,
				0.3544923961162567,
				0
			]
		},
		{
			"mesh":3,
			"name":"botones",
			"translation":[
				0,
				0.3170740604400635,
				0
			]
		},
		{
			"mesh":4,
			"name":"conector",
			"rotation":[
				0.7071068286895752,
				0,
				0,
				0.7071068286895752
			],
			"translation":[
				-0.5092489123344421,
				0.2791770398616791,
				1.0350923538208008
			]
		},
		{
			"mesh":5,
			"name":"conector.001",
			"rotation":[
				0.7071068286895752,
				0,
				0,
				0.7071068286895752
			],
			"translation":[
				-0.20914554595947266,
				0.2791770398616791,
				1.0350923538208008
			]
		},
		{
			"mesh":6,
			"name":"conector.002",
			"rotation":[
				0.7071068286895752,
				0,
				0,
				0.7071068286895752
			],
			"translation":[
				0.2389087677001953,
				0.2791770398616791,
				1.0350923538208008
			]
		},
		{
			"mesh":7,
			"name":"conector.003",
			"rotation":[
				0.7071068286895752,
				0,
				0,
				0.7071068286895752
			],
			"translation":[
				0.5390121340751648,
				0.2791770398616791,
				1.0350923538208008
			]
		},
		{
			"mesh":8,
			"name":"Circle",
			"translation":[
				-0.952009379863739,
				0.08428149670362473,
				0.7559083104133606
			]
		},
		{
			"mesh":9,
			"name":"Circle.001",
			"translation":[
				-0.8298658132553101,
				0.06803780049085617,
				-0.7801284193992615
			]
		},
		{
			"mesh":10,
			"name":"Circle.002",
			"translation":[
				0.8362182378768921,
				0.06803780049085617,
				-0.7801284193992615
			]
		},
		{
			"mesh":11,
			"name":"Circle.003",
			"translation":[
				0.9593594074249268,
				0.08428149670362473,
				0.737396240234375
			]
		},
		{
			"mesh":12,
			"name":"nin64L",
			"rotation":[
				0.7071068286895752,
				0,
				0,
				0.7071068286895752
			],
			"translation":[
				-0.009326305240392685,
				0.6494340896606445,
				1.0046647787094116
			]
		}
	],
	"materials":[
		{
			"doubleSided":true,
			"name":"Material.013",
			"pbrMetallicRoughness":{
				"baseColorFactor":[
					0.7525760531425476,
					0.8000000715255737,
					0.8000000715255737,
					1
				],
				"metallicFactor":0,
				"roughnessFactor":0.5
			}
		},
		{
			"doubleSided":true,
			"extensions":{
				"KHR_materials_clearcoat":{
					"clearcoatFactor":0.3333333432674408,
					"clearcoatRoughnessFactor":0.3466666638851166
				}
			},
			"name":"Material",
			"pbrMetallicRoughness":{
				"baseColorFactor":[
					0.0173877514898777,
					0.0173877514898777,
					0.0173877514898777,
					1
				],
				"metallicFactor":0,
				"roughnessFactor":0.7166666984558105
			}
		},
		{
			"doubleSided":true,
			"extensions":{
				"KHR_materials_clearcoat":{
					"clearcoatFactor":0.3333333432674408,
					"clearcoatRoughnessFactor":0.3466666638851166
				}
			},
			"name":"Material",
			"pbrMetallicRoughness":{
				"baseColorFactor":[
					0.0173877514898777,
					0.0173877514898777,
					0.0173877514898777,
					1
				],
				"metallicFactor":0,
				"roughnessFactor":0.7166666984558105
			}
		},
		{
			"doubleSided":true,
			"extensions":{
				"KHR_materials_clearcoat":{
					"clearcoatFactor":0.550000011920929,
					"clearcoatRoughnessFactor":0.8966666460037231
				}
			},
			"name":"Material.001",
			"pbrMetallicRoughness":{
				"baseColorFactor":[
					0.447977751493454,
					0.447977751493454,
					0.447977751493454,
					1
				],
				"metallicFactor":0,
				"roughnessFactor":0.8666666746139526
			}
		},
		{
			"alphaMode":"BLEND",
			"doubleSided":true,
			"name":"nin64L",
			"pbrMetallicRoughness":{
				"baseColorTexture":{
					"index":0
				},
				"metallicFactor":0,
				"roughnessFactor":0.5
			}
		}
	],
	"meshes":[
		{
			"name":"Cube.003",
			"primitives":[
				{
					"attributes":{
						"POSITION":0,
						"NORMAL":1,
						"TEXCOORD_0":2
					},
					"indices":3,
					"material":0
				}
			]
		},
		{
			"name":"Cube.002",
			"primitives":[
				{
					"attributes":{
						"POSITION":4,
						"NORMAL":5,
						"TEXCOORD_0":6
					},
					"indices":7,
					"material":1
				}
			]
		},
		{
			"name":"Cube",
			"primitives":[
				{
					"attributes":{
						"POSITION":8,
						"NORMAL":9,
						"TEXCOORD_0":10
					},
					"indices":11,
					"material":2
				}
			]
		},
		{
			"name":"Cube.004",
			"primitives":[
				{
					"attributes":{
						"POSITION":12,
						"NORMAL":13,
						"TEXCOORD_0":14
					},
					"indices":15,
					"material":1
				}
			]
		},
		{
			"name":"Circle",
			"primitives":[
				{
					"attributes":{
						"POSITION":16,
						"NORMAL":17,
						"TEXCOORD_0":18
					},
					"indices":19,
					"material":3
				}
			]
		},
		{
			"name":"Circle.001",
			"primitives":[
				{
					"attributes":{
						"POSITION":20,
						"NORMAL":21,
						"TEXCOORD_0":22
					},
					"indices":19,
					"material":3
				}
			]
		},
		{
			"name":"Circle.002",
			"primitives":[
				{
					"attributes":{
						"POSITION":23,
						"NORMAL":24,
						"TEXCOORD_0":25
					},
					"indices":19,
					"material":3
				}
			]
		},
		{
			"name":"Circle.003",
			"primitives":[
				{
					"attributes":{
						"POSITION":26,
						"NORMAL":27,
						"TEXCOORD_0":28
					},
					"indices":19,
					"material":3
				}
			]
		},
		{
			"name":"Circle.005",
			"primitives":[
				{
					"attributes":{
						"POSITION":29,
						"NORMAL":30,
						"TEXCOORD_0":31
					},
					"indices":32,
					"material":2
				}
			]
		},
		{
			"name":"Circle.006",
			"primitives":[
				{
					"attributes":{
						"POSITION":33,
						"NORMAL":34,
						"TEXCOORD_0":35
					},
					"indices":36,
					"material":2
				}
			]
		},
		{
			"name":"Circle.007",
			"primitives":[
				{
					"attributes":{
						"POSITION":37,
						"NORMAL":38,
						"TEXCOORD_0":39
					},
					"indices":36,
					"material":2
				}
			]
		},
		{
			"name":"Circle.008",
			"primitives":[
				{
					"attributes":{
						"POSITION":40,
						"NORMAL":41,
						"TEXCOORD_0":42
					},
					"indices":32,
					"material":2
				}
			]
		},
		{
			"name":"nin64L",
			"primitives":[
				{
					"attributes":{
						"POSITION":43,
						"NORMAL":44,
						"TEXCOORD_0":45
					},
					"indices":46,
					"material":4
				}
			]
		}
	],
	"textures":[
		{
			"sampler":0,
			"source":0
		}
	],
	"images":[
		{
			"bufferView":47,
			"mimeType":"image/png",
			"name":"nin64L"
		}
	],
	"accessors":[
		{
			"bufferView":0,
			"componentType":5126,
			"count":2545,
			"max":[
				0.5373519659042358,
				0.35859909653663635,
				-0.6165318489074707
			],
			"min":[
				-0.5373519659042358,
				0.3396349847316742,
				-0.7518807649612427
			],
			"type":"VEC3"
		},
		{
			"bufferView":1,
			"componentType":5126,
			"count":2545,
			"type":"VEC3"
		},
		{
			"bufferView":2,
			"componentType":5126,
			"count":2545,
			"type":"VEC2"
		},
		{
			"bufferView":3,
			"componentType":5123,
			"count":9504,
			"type":"SCALAR"
		},
		{
			"bufferView":4,
			"componentType":5126,
			"count":4303,
			"max":[
				1.2911642789840698,
				-0.07120084017515182,
				1.0985870361328125
			],
			"min":[
				-1.2911642789840698,
				-0.3086698651313782,
				-1.209013819694519
			],
			"type":"VEC3"
		},
		{
			"bufferView":5,
			"componentType":5126,
			"count":4303,
			"type":"VEC3"
		},
		{
			"bufferView":6,
			"componentType":5126,
			"count":4303,
			"type":"VEC2"
		},
		{
			"bufferView":7,
			"componentType":5123,
			"count":14790,
			"type":"SCALAR"
		},
		{
			"bufferView":8,
			"componentType":5126,
			"count":13472,
			"max":[
				1.2911642789840698,
				0.4606356620788574,
				1.0985870361328125
			],
			"min":[
				-1.2911642789840698,
				-0.06671249121427536,
				-1.2090139389038086
			],
			"type":"VEC3"
		},
		{
			"bufferView":9,
			"componentType":5126,
			"count":13472,
			"type":"VEC3"
		},
		{
			"bufferView":10,
			"componentType":5126,
			"count":13472,
			"type":"VEC2"
		},
		{
			"bufferView":11,
			"componentType":5123,
			"count":52230,
			"type":"SCALAR"
		},
		{
			"bufferView":12,
			"componentType":5126,
			"count":3020,
			"max":[
				0.816950798034668,
				0.43971574306488037,
				0.8780520558357239
			],
			"min":[
				-0.816950798034668,
				0.3583841025829315,
				0.5388573408126831
			],
			"type":"VEC3"
		},
		{
			"bufferView":13,
			"componentType":5126,
			"count":3020,
			"type":"VEC3"
		},
		{
			"bufferView":14,
			"componentType":5126,
			"count":3020,
			"type":"VEC2"
		},
		{
			"bufferView":15,
			"componentType":5123,
			"count":14016,
			"type":"SCALAR"
		},
		{
			"bufferView":16,
			"componentType":5126,
			"count":3061,
			"max":[
				0.10621592402458191,
				-2.2570708097191527e-05,
				0.10621592402458191
			],
			"min":[
				-0.10621592402458191,
				-0.18782274425029755,
				-0.10621592402458191
			],
			"type":"VEC3"
		},
		{
			"bufferView":17,
			"componentType":5126,
			"count":3061,
			"type":"VEC3"
		},
		{
			"bufferView":18,
			"componentType":5126,
			"count":3061,
			"type":"VEC2"
		},
		{
			"bufferView":19,
			"componentType":5123,
			"count":16038,
			"type":"SCALAR"
		},
		{
			"bufferView":20,
			"componentType":5126,
			"count":3061,
			"max":[
				0.10621592402458191,
				-2.2570708097191527e-05,
				0.10621592402458191
			],
			"min":[
				-0.10621592402458191,
				-0.18782274425029755,
				-0.10621592402458191
			],
			"type":"VEC3"
		},
		{
			"bufferView":21,
			"componentType":5126,
			"count":3061,
			"type":"VEC3"
		},
		{
			"bufferView":22,
			"componentType":5126,
			"count":3061,
			"type":"VEC2"
		},
		{
			"bufferView":23,
			"componentType":5126,
			"count":3061,
			"max":[
				0.10621592402458191,
				-2.2570708097191527e-05,
				0.10621592402458191
			],
			"min":[
				-0.10621592402458191,
				-0.18782274425029755,
				-0.10621592402458191
			],
			"type":"VEC3"
		},
		{
			"bufferView":24,
			"componentType":5126,
			"count":3061,
			"type":"VEC3"
		},
		{
			"bufferView":25,
			"componentType":5126,
			"count":3061,
			"type":"VEC2"
		},
		{
			"bufferView":26,
			"componentType":5126,
			"count":3061,
			"max":[
				0.10621592402458191,
				-2.2570708097191527e-05,
				0.10621592402458191
			],
			"min":[
				-0.10621592402458191,
				-0.18782274425029755,
				-0.10621592402458191
			],
			"type":"VEC3"
		},
		{
			"bufferView":27,
			"componentType":5126,
			"count":3061,
			"type":"VEC3"
		},
		{
			"bufferView":28,
			"componentType":5126,
			"count":3061,
			"type":"VEC2"
		},
		{
			"bufferView":29,
			"componentType":5126,
			"count":320,
			"max":[
				0.26866692304611206,
				0,
				0.26866692304611206
			],
			"min":[
				-0.26866692304611206,
				-0.09559409320354462,
				-0.26866692304611206
			],
			"type":"VEC3"
		},
		{
			"bufferView":30,
			"componentType":5126,
			"count":320,
			"type":"VEC3"
		},
		{
			"bufferView":31,
			"componentType":5126,
			"count":320,
			"type":"VEC2"
		},
		{
			"bufferView":32,
			"componentType":5123,
			"count":1434,
			"type":"SCALAR"
		},
		{
			"bufferView":33,
			"componentType":5126,
			"count":352,
			"max":[
				0.15520049631595612,
				0,
				0.15520049631595612
			],
			"min":[
				-0.15520049631595612,
				-0.07939348369836807,
				-0.15520049631595612
			],
			"type":"VEC3"
		},
		{
			"bufferView":34,
			"componentType":5126,
			"count":352,
			"type":"VEC3"
		},
		{
			"bufferView":35,
			"componentType":5126,
			"count":352,
			"type":"VEC2"
		},
		{
			"bufferView":36,
			"componentType":5123,
			"count":1434,
			"type":"SCALAR"
		},
		{
			"bufferView":37,
			"componentType":5126,
			"count":352,
			"max":[
				0.15520049631595612,
				0,
				0.15520049631595612
			],
			"min":[
				-0.15520049631595612,
				-0.07939348369836807,
				-0.15520049631595612
			],
			"type":"VEC3"
		},
		{
			"bufferView":38,
			"componentType":5126,
			"count":352,
			"type":"VEC3"
		},
		{
			"bufferView":39,
			"componentType":5126,
			"count":352,
			"type":"VEC2"
		},
		{
			"bufferView":40,
			"componentType":5126,
			"count":320,
			"max":[
				0.26866692304611206,
				0,
				0.26866692304611206
			],
			"min":[
				-0.26866692304611206,
				-0.09559409320354462,
				-0.26866692304611206
			],
			"type":"VEC3"
		},
		{
			"bufferView":41,
			"componentType":5126,
			"count":320,
			"type":"VEC3"
		},
		{
			"bufferView":42,
			"componentType":5126,
			"count":320,
			"type":"VEC2"
		},
		{
			"bufferView":43,
			"componentType":5126,
			"count":4,
			"max":[
				0.17099519073963165,
				0,
				0.0784381553530693
			],
			"min":[
				-0.17099519073963165,
				0,
				-0.0784381553530693
			],
			"type":"VEC3"
		},
		{
			"bufferView":44,
			"componentType":5126,
			"count":4,
			"type":"VEC3"
		},
		{
			"bufferView":45,
			"componentType":5126,
			"count":4,
			"type":"VEC2"
		},
		{
			"bufferView":46,
			"componentType":5123,
			"count":6,
			"type":"SCALAR"
		}
	],
	"bufferViews":[
		{
			"buffer":0,
			"byteLength":30540,
			"byteOffset":0,
			"target":34962
		},
		{
			"buffer":0,
			"byteLength":30540,
			"byteOffset":30540,
			"target":34962
		},
		{
			"buffer":0,
			"byteLength":20360,
			"byteOffset":61080,
			"target":34962
		},
		{
			"buffer":0,
			"byteLength":19008,
			"byteOffset":81440,
			"target":34963
		},
		{
			"buffer":0,
			"byteLength":51636,
			"byteOffset":100448,
			"target":34962
		},
		{
			"buffer":0,
			"byteLength":51636,
			"byteOffset":152084,
			"target":34962
		},
		{
			"buffer":0,
			"byteLength":34424,
			"byteOffset":203720,
			"target":34962
		},
		{
			"buffer":0,
			"byteLength":29580,
			"byteOffset":238144,
			"target":34963
		},
		{
			"buffer":0,
			"byteLength":161664,
			"byteOffset":267724,
			"target":34962
		},
		{
			"buffer":0,
			"byteLength":161664,
			"byteOffset":429388,
			"target":34962
		},
		{
			"buffer":0,
			"byteLength":107776,
			"byteOffset":591052,
			"target":34962
		},
		{
			"buffer":0,
			"byteLength":104460,
			"byteOffset":698828,
			"target":34963
		},
		{
			"buffer":0,
			"byteLength":36240,
			"byteOffset":803288,
			"target":34962
		},
		{
			"buffer":0,
			"byteLength":36240,
			"byteOffset":839528,
			"target":34962
		},
		{
			"buffer":0,
			"byteLength":24160,
			"byteOffset":875768,
			"target":34962
		},
		{
			"buffer":0,
			"byteLength":28032,
			"byteOffset":899928,
			"target":34963
		},
		{
			"buffer":0,
			"byteLength":36732,
			"byteOffset":927960,
			"target":34962
		},
		{
			"buffer":0,
			"byteLength":36732,
			"byteOffset":964692,
			"target":34962
		},
		{
			"buffer":0,
			"byteLength":24488,
			"byteOffset":1001424,
			"target":34962
		},
		{
			"buffer":0,
			"byteLength":32076,
			"byteOffset":1025912,
			"target":34963
		},
		{
			"buffer":0,
			"byteLength":36732,
			"byteOffset":1057988,
			"target":34962
		},
		{
			"buffer":0,
			"byteLength":36732,
			"byteOffset":1094720,
			"target":34962
		},
		{
			"buffer":0,
			"byteLength":24488,
			"byteOffset":1131452,
			"target":34962
		},
		{
			"buffer":0,
			"byteLength":36732,
			"byteOffset":1155940,
			"target":34962
		},
		{
			"buffer":0,
			"byteLength":36732,
			"byteOffset":1192672,
			"target":34962
		},
		{
			"buffer":0,
			"byteLength":24488,
			"byteOffset":1229404,
			"target":34962
		},
		{
			"buffer":0,
			"byteLength":36732,
			"byteOffset":1253892,
			"target":34962
		},
		{
			"buffer":0,
			"byteLength":36732,
			"byteOffset":1290624,
			"target":34962
		},
		{
			"buffer":0,
			"byteLength":24488,
			"byteOffset":1327356,
			"target":34962
		},
		{
			"buffer":0,
			"byteLength":3840,
			"byteOffset":1351844,
			"target":34962
		},
		{
			"buffer":0,
			"byteLength":3840,
			"byteOffset":1355684,
			"target":34962
		},
		{
			"buffer":0,
			"byteLength":2560,
			"byteOffset":1359524,
			"target":34962
		},
		{
			"buffer":0,
			"byteLength":2868,
			"byteOffset":1362084,
			"target":34963
		},
		{
			"buffer":0,
			"byteLength":4224,
			"byteOffset":1364952,
			"target":34962
		},
		{
			"buffer":0,
			"byteLength":4224,
			"byteOffset":1369176,
			"target":34962
		},
		{
			"buffer":0,
			"byteLength":2816,
			"byteOffset":1373400,
			"target":34962
		},
		{
			"buffer":0,
			"byteLength":2868,
			"byteOffset":1376216,
			"target":34963
		},
		{
			"buffer":0,
			"byteLength":4224,
			"byteOffset":1379084,
			"target":34962
		},
		{
			"buffer":0,
			"byteLength":4224,
			"byteOffset":1383308,
			"target":34962
		},
		{
			"buffer":0,
			"byteLength":2816,
			"byteOffset":1387532,
			"target":34962
		},
		{
			"buffer":0,
			"byteLength":3840,
			"byteOffset":1390348,
			"target":34962
		},
		{
			"buffer":0,
			"byteLength":3840,
			"byteOffset":1394188,
			"target":34962
		},
		{
			"buffer":0,
			"byteLength":2560,
			"byteOffset":1398028,
			"target":34962
		},
		{
			"buffer":0,
			"byteLength":48,
			"byteOffset":1400588,
			"target":34962
		},
		{
			"buffer":0,
			"byteLength":48,
			"byteOffset":1400636,
			"target":34962
		},
		{
			"buffer":0,
			"byteLength":32,
			"byteOffset":1400684,
			"target":34962
		},
		{
			"buffer":0,
			"byteLength":12,
			"byteOffset":1400716,
			"target":34963
		},
		{
			"buffer":0,
			"byteLength":19278,
			"byteOffset":1400728
		}
	],
	"samplers":[
		{
			"magFilter":9729,
			"minFilter":9987,
			"wrapS":33071,
			"wrapT":33071
		}
	],
	"buffers":[
		{
			"byteLength":1420008,
			"uri":"data:application/octet-stream;base64,"
		}
	]
}
